PathFileType	4	(X/Y/Z)	Apose_0-124.trc
DataRate	CameraRate	NumFrames	NumMarkers	Units	OrigDataRate	OrigDataStartFrame	OrigNumFrames
30	30	4	22	m	30	0	124
Frame#	Time	Hip			RHip			RKnee			RAnkle			RBigToe			RSmallToe			RHeel			LHip			LKnee			LAnkle			LBigToe			LSmallToe			LHeel			Neck			Head			Nose			RShoulder			RElbow			RWrist			LShoulder			LElbow			LWrist		
		X1	Y1	Z1	X2	Y2	Z2	X3	Y3	Z3	X4	Y4	Z4	X5	Y5	Z5	X6	Y6	Z6	X7	Y7	Z7	X8	Y8	Z8	X9	Y9	Z9	X10	Y10	Z10	X11	Y11	Z11	X12	Y12	Z12	X13	Y13	Z13	X14	Y14	Z14	X15	Y15	Z15	X16	Y16	Z16	X17	Y17	Z17	X18	Y18	Z18	X19	Y19	Z19	X20	Y20	Z20	X21	Y21	Z21	X22	Y22	Z22
1	0.0333333333333333	0.8231229444671028	0.853739681743397	0.33591873714603077	0.8363692952187615	0.8182752722423342	0.25388693164156495	0.8404874154111118	0.49209036445665716	0.2665303480948285	0.8382541414946829	0.11235839163685692	0.2843030976944497	0.6907371071774853	0.025229155547166916	0.22259808801461162	0.7299911366009957	0.03035674554050327	0.16694101708319092	0.8732529969214161	0.037448981596838106	0.2948320247867126	0.8195344229285986	0.8179534645788133	0.42821925597455945	0.8322898811770828	0.49815803794885855	0.42600338494386625	0.8523552354269421	0.11593058133153701	0.42569372757203006	0.6807142940470465	0.03634849758982279	0.4516483163278404	0.727605046218519	0.0305013091751131	0.5190551996511612	0.8829253792656382	0.042559470779924675	0.42588525625346896	0.828387837775209	1.4589666702606943	0.3384695933492152	0.8073595540779193	1.689361032733932	0.3441669243174082	0.7044927595978285	1.5782969818352464	0.3239336334216856	0.8618195345640817	1.368573197838588	0.15348637008658295	0.8914609494078011	1.1801468408779816	-0.03102835113848809	0.8678200709505357	1.094580276351561	-0.2041677148785962	0.8276607593112677	1.3713171364677408	0.5241394398644245	0.800647299072314	1.1803602236708781	0.701330570612114	0.7598044973868825	1.0734900429386787	0.8754461278945846
2	0.0666666666666666	0.8215648710438954	0.8536509670032224	0.3362173990020198	0.8343807304593627	0.8181602005978056	0.25258384163890596	0.8402492888824893	0.4883122555929614	0.2658089022420986	0.8375644461722759	0.11056115792175389	0.2837616602674052	0.6829219006857571	0.0307726170177714	0.21835474891747836	0.7305394803438796	0.03051325324510951	0.16773390104699448	0.8694681708037393	0.0382842000384824	0.29608849390847675	0.8185902821381691	0.8179026407142963	0.4288610250778358	0.8307724559885682	0.4971738576482842	0.4237387343596851	0.8505415528185871	0.11278819353055096	0.42542549510441613	0.6734159466861235	0.033597758969363886	0.45310126204418644	0.7269283806494311	0.031209836594775112	0.5179728983649892	0.8862909968042311	0.044999966563022166	0.42652043388214816	0.826754515382936	1.4594807894996806	0.339026328529863	0.8100193999131169	1.69038440774834	0.34473268984834565	0.7073934419201329	1.576185933623175	0.31526637320223017	0.8632347292773017	1.3721285373675094	0.15817510324721035	0.8918849444911595	1.1823396303741618	-0.029575727281174198	0.8677969849072823	1.0945956854830339	-0.20608322820126013	0.827780358583155	1.372364291188135	0.5236146868530533	0.8047504874882148	1.1765473528420978	0.7064511585391129	0.7630449946372633	1.0735827312878312	0.8739014336255693
3	0.1	0.820205111950366	0.8535735111300452	0.3364064266963447	0.8326488388731639	0.8178938724489466	0.25169211460094587	0.8401543805462343	0.48588925787183845	0.265375324843823	0.8369278487145706	0.10909561811920013	0.28338665848128497	0.6766374529792859	0.03512279345604885	0.2148687796418118	0.7309660060366224	0.03058184637603062	0.16836526965872783	0.8664668594356544	0.039019111766442044	0.29720463539343156	0.8175977300171492	0.8176876312064169	0.4293570426287873	0.8293006466681698	0.4960602853263157	0.4219399551852309	0.8487356259493921	0.11011677609977981	0.42529818315570056	0.6670108821790173	0.031675077439969286	0.4548462061306054	0.7264621182202721	0.031722588176533895	0.5171816569664963	0.888776311683875	0.04677738276845623	0.4269137048170675	0.8253790539984895	1.4598772187471178	0.3395628300254016	0.8116883854489793	1.6907421365342605	0.34588850388948966	0.7104812372921413	1.5751953556132687	0.3072412956408565	0.8644853960401861	1.375182272590547	0.16222659236319611	0.8920318773014762	1.184175059235047	-0.028534508611204663	0.8676916465539294	1.0947444590995203	-0.20781738050123585	0.8277531939062666	1.3731596474287668	0.5230757884298304	0.8083918077045925	1.1731261297113258	0.7110872578433569	0.7654143518823445	1.0734307097405504	0.8723591923747979
4	0.1333333333333333	0.8191728941284596	0.8534792122660424	0.33646803305649187	0.8313487264428635	0.8174403664470821	0.25134689210889477	0.8402236162545762	0.4848754733093312	0.26530097716289125	0.8363848561374804	0.10813093919507147	0.2832538719451388	0.6725499499839294	0.03775098436145817	0.21249474324756132	0.7311984316759524	0.030576202994195542	0.1687329975077559	0.8646440311662171	0.03948834897649881	0.2980297979466889	0.8165894448438941	0.817207863805522	0.42952788255608554	0.8279996386110665	0.4948273327588013	0.4208004961631719	0.847096909528285	0.1081386995348834	0.4252217030058916	0.6623812733459821	0.03101815948458444	0.456743743732167	0.7262452359606804	0.03194896754346603	0.5167154811270797	0.8899928399349561	0.0475158592381586	0.4268766033785148	0.8244147647058119	1.4601190277262814	0.3400441206615173	0.8120239609315486	1.6903466576351565	0.34763803396889786	0.7144457870825252	1.57524637710583	0.2997058489353913	0.8655196183973165	1.3774967736625816	0.16532438130710447	0.8918720301230555	1.1854465036161212	-0.02815494833127188	0.8675542518707281	1.095035637082023	-0.20922208528586017	0.8275466831263261	1.3735824123529357	0.5225594267789779	0.8110564724337544	1.170511529035744	0.7146955405942745	0.766399549245322	1.0730479434929043	0.8710826486239764
